<svg width="56" height="50" viewBox="0 0 56 50" fill="none" xmlns="http://www.w3.org/2000/svg">
<path fill-rule="evenodd" clip-rule="evenodd" d="M41.3397 16.4254C41.5241 16.6696 41.6826 16.9329 41.8119 17.2123C49.4401 19.131 55.0559 25.4801 55.0559 32.9966C55.0559 42.0276 46.9493 49.375 36.9851 49.375C31.783 49.375 27.0882 47.3716 23.7881 44.1723H11.2608C8.56469 44.1723 6.37112 42.1842 6.37112 39.7405C6.37112 38.3371 7.09544 37.0847 8.22231 36.2722C7.09544 35.4596 6.37112 34.2072 6.37112 32.8038C6.37112 31.4004 7.09544 30.148 8.22231 29.3354C7.09544 28.5229 6.37112 27.2705 6.37112 25.867C6.37112 24.4636 7.09544 23.2112 8.22231 22.3987C7.09544 21.5861 6.37112 20.3337 6.37112 18.9303C6.37112 16.4866 8.56469 14.4985 11.2608 14.4985H14.0331C13.4918 13.7854 13.1742 12.9226 13.1742 11.9936C13.1742 11.0645 13.4919 10.2018 14.0331 9.48862H5.52073C2.82458 9.48862 0.631012 7.50047 0.631012 5.05681C0.631012 2.61315 2.82458 0.625 5.52073 0.625H31.5638C34.26 0.625 36.4535 2.61315 36.4535 5.05681C36.4535 5.98585 36.1358 6.84861 35.5947 7.56175H44.107C46.8032 7.56175 48.9967 9.54989 48.9967 11.9936C48.9967 14.4372 46.8032 16.4254 44.107 16.4254H41.3397ZM46.8708 11.9936C46.8708 10.6124 45.631 9.48862 44.107 9.48862H18.0639C16.5399 9.48862 15.3002 10.6124 15.3002 11.9936C15.3002 13.3747 16.5399 14.4985 18.0639 14.4985H37.3039H44.107C45.631 14.4985 46.8708 13.3747 46.8708 11.9936ZM2.75698 5.05681C2.75698 6.43799 3.99674 7.56175 5.52073 7.56175H31.5638C33.0878 7.56175 34.3276 6.43799 34.3276 5.05681C34.3276 3.67563 33.0878 2.55187 31.5638 2.55187H5.52073C3.99674 2.55187 2.75698 3.67563 2.75698 5.05681ZM37.3039 16.4254H11.2608C9.73695 16.4254 8.49709 17.5491 8.49709 18.9303C8.49709 20.3115 9.73695 21.4352 11.2608 21.4352H24.1976C27.4709 18.4611 31.995 16.6181 36.9851 16.6181C37.4988 16.6181 38.0071 16.6388 38.5099 16.677C38.1421 16.5155 37.7321 16.4254 37.3039 16.4254ZM22.3812 23.3621H11.2608C9.73685 23.3621 8.49709 24.4859 8.49709 25.867C8.49709 27.2483 9.73685 28.372 11.2608 28.372H19.6491C20.2416 26.5506 21.1745 24.8605 22.3812 23.3621ZM19.1609 30.2989H11.2608C9.73685 30.2989 8.49709 31.4225 8.49709 32.8038C8.49709 34.1851 9.73685 35.3087 11.2608 35.3087H19.0954C18.977 34.5531 18.9144 33.7814 18.9144 32.9966C18.9144 32.0777 18.9997 31.1768 19.1609 30.2989ZM8.49709 39.7405C8.49709 41.1218 9.73685 42.2455 11.2608 42.2455H22.0798C20.9371 40.7373 20.0657 39.0481 19.5294 37.2356H11.2608C9.73685 37.2356 8.49709 38.3593 8.49709 39.7405ZM21.0404 32.9966C21.0404 40.9652 28.1932 47.4481 36.9851 47.4481C45.7771 47.4481 52.9299 40.9652 52.9299 32.9966C52.9299 25.028 45.7771 18.545 36.9851 18.545C28.1932 18.545 21.0404 25.028 21.0404 32.9966ZM34.2737 29.7035C34.2737 30.8741 35.4877 31.8265 36.98 31.8265C39.829 31.8265 42.1468 33.7793 42.1468 36.1795C42.1468 38.2227 40.4671 39.9407 38.2102 40.4069V40.8886C38.2102 41.5043 37.6593 42.0036 36.98 42.0036C36.3008 42.0036 35.7499 41.5043 35.7499 40.8886V40.4069C33.493 39.9407 31.8133 38.2227 31.8133 36.1795C31.8133 35.5639 32.3642 35.0646 33.0435 35.0646C33.7228 35.0646 34.2737 35.5639 34.2737 36.1795C34.2737 37.3503 35.4877 38.3027 36.98 38.3027C38.4724 38.3027 39.6864 37.3503 39.6864 36.1795C39.6864 35.0088 38.4724 34.0564 36.98 34.0564C34.1311 34.0564 31.8133 32.1037 31.8133 29.7035C31.8133 27.6603 33.493 25.9424 35.7499 25.4761V24.8962C35.7499 24.2805 36.3008 23.7813 36.98 23.7813C37.6593 23.7813 38.2102 24.2805 38.2102 24.8962V25.4761C40.4671 25.9424 42.1468 27.6603 42.1468 29.7035C42.1468 30.3192 41.5959 30.8185 40.9166 30.8185C40.2373 30.8185 39.6864 30.3192 39.6864 29.7035C39.6864 28.5328 38.4724 27.5804 36.98 27.5804C35.4877 27.5804 34.2737 28.5328 34.2737 29.7035Z" fill="#9BABF7"/>
<path d="M41.8119 17.2123L41.3582 17.4224L41.4585 17.639L41.69 17.6972L41.8119 17.2123ZM41.3397 16.4254V15.9254H40.3355L40.9406 16.7267L41.3397 16.4254ZM23.7881 44.1723L24.1361 43.8133L23.9907 43.6723H23.7881V44.1723ZM8.22231 36.2722L8.51475 36.6777L9.07718 36.2722L8.51475 35.8666L8.22231 36.2722ZM8.22231 29.3354L8.51475 29.741L9.07718 29.3354L8.51475 28.9299L8.22231 29.3354ZM8.22231 22.3987L8.51475 22.8042L9.07718 22.3987L8.51475 21.9931L8.22231 22.3987ZM14.0331 14.4985V14.9985H15.0403L14.4314 14.1962L14.0331 14.4985ZM14.0331 9.48862L14.4314 9.79087L15.0402 8.98862H14.0331V9.48862ZM35.5947 7.56175L35.1964 7.25949L34.5876 8.06175H35.5947V7.56175ZM24.1976 21.4352V21.9352H24.3908L24.5338 21.8053L24.1976 21.4352ZM38.5099 16.677L38.472 17.1756L38.7109 16.2192L38.5099 16.677ZM22.3812 23.3621L22.7707 23.6757L23.4259 22.8621H22.3812V23.3621ZM19.6491 28.372V28.872H20.0122L20.1245 28.5267L19.6491 28.372ZM19.1609 30.2989L19.6527 30.3892L19.7611 29.7989H19.1609V30.2989ZM19.0954 35.3087V35.8087H19.6797L19.5893 35.2314L19.0954 35.3087ZM22.0798 42.2455V42.7455H23.0859L22.4783 41.9435L22.0798 42.2455ZM19.5294 37.2356L20.0088 37.0937L19.9028 36.7356H19.5294V37.2356ZM38.2102 40.4069L38.1091 39.9173L37.7102 39.9997V40.4069H38.2102ZM35.7499 40.4069H36.2499V39.9997L35.851 39.9173L35.7499 40.4069ZM35.7499 25.4761L35.851 25.9658L36.2499 25.8834V25.4761H35.7499ZM38.2102 25.4761H37.7102V25.8834L38.1091 25.9658L38.2102 25.4761ZM42.2657 17.0022C42.1212 16.6902 41.9443 16.3963 41.7387 16.1241L40.9406 16.7267C41.1039 16.9429 41.244 17.1756 41.3582 17.4224L42.2657 17.0022ZM55.5559 32.9966C55.5559 25.2152 49.7477 18.6928 41.9339 16.7274L41.69 17.6972C49.1326 19.5692 54.5559 25.745 54.5559 32.9966H55.5559ZM36.9851 49.875C47.1781 49.875 55.5559 42.3489 55.5559 32.9966H54.5559C54.5559 41.7064 46.7206 48.875 36.9851 48.875V49.875ZM23.4401 44.5313C26.8346 47.8221 31.6546 49.875 36.9851 49.875V48.875C31.9114 48.875 27.3419 46.9212 24.1361 43.8133L23.4401 44.5313ZM11.2608 44.6723H23.7881V43.6723H11.2608V44.6723ZM5.87112 39.7405C5.87112 42.5055 8.33595 44.6723 11.2608 44.6723V43.6723C8.79344 43.6723 6.87112 41.8629 6.87112 39.7405H5.87112ZM7.92987 35.8666C6.68911 36.7613 5.87112 38.1572 5.87112 39.7405H6.87112C6.87112 38.517 7.50176 37.4082 8.51475 36.6777L7.92987 35.8666ZM5.87112 32.8038C5.87112 34.3872 6.68912 35.783 7.92987 36.6777L8.51475 35.8666C7.50176 35.1362 6.87112 34.0273 6.87112 32.8038H5.87112ZM7.92987 28.9299C6.68912 29.8245 5.87112 31.2204 5.87112 32.8038H6.87112C6.87112 31.5803 7.50176 30.4714 8.51475 29.741L7.92987 28.9299ZM5.87112 25.867C5.87112 27.4504 6.68912 28.8463 7.92987 29.741L8.51475 28.9299C7.50176 28.1994 6.87112 27.0905 6.87112 25.867H5.87112ZM7.92987 21.9931C6.68912 22.8878 5.87112 24.2837 5.87112 25.867H6.87112C6.87112 24.6436 7.50176 23.5347 8.51475 22.8042L7.92987 21.9931ZM5.87112 18.9303C5.87112 20.5137 6.68912 21.9095 7.92987 22.8042L8.51475 21.9931C7.50176 21.2627 6.87112 20.1538 6.87112 18.9303H5.87112ZM11.2608 13.9985C8.33595 13.9985 5.87112 16.1654 5.87112 18.9303H6.87112C6.87112 16.8079 8.79344 14.9985 11.2608 14.9985V13.9985ZM14.0331 13.9985H11.2608V14.9985H14.0331V13.9985ZM12.6742 11.9936C12.6742 13.0397 13.0325 14.0072 13.6348 14.8008L14.4314 14.1962C13.9511 13.5635 13.6742 12.8055 13.6742 11.9936H12.6742ZM13.6348 9.18637C13.0327 9.97987 12.6742 10.9474 12.6742 11.9936H13.6742C13.6742 11.1817 13.9512 10.4236 14.4314 9.79087L13.6348 9.18637ZM5.52073 9.98862H14.0331V8.98862H5.52073V9.98862ZM0.131012 5.05681C0.131012 7.82174 2.59584 9.98862 5.52073 9.98862V8.98862C3.05333 8.98862 1.13101 7.1792 1.13101 5.05681H0.131012ZM5.52073 0.125C2.59584 0.125 0.131012 2.29188 0.131012 5.05681H1.13101C1.13101 2.93441 3.05333 1.125 5.52073 1.125V0.125ZM31.5638 0.125H5.52073V1.125H31.5638V0.125ZM36.9535 5.05681C36.9535 2.29188 34.4887 0.125 31.5638 0.125V1.125C34.0312 1.125 35.9535 2.93441 35.9535 5.05681H36.9535ZM35.993 7.864C36.5951 7.0705 36.9535 6.10299 36.9535 5.05681H35.9535C35.9535 5.86871 35.6765 6.62672 35.1964 7.25949L35.993 7.864ZM44.107 7.06175H35.5947V8.06175H44.107V7.06175ZM49.4967 11.9936C49.4967 9.22863 47.0319 7.06175 44.107 7.06175V8.06175C46.5744 8.06175 48.4967 9.87116 48.4967 11.9936H49.4967ZM44.107 16.9254C47.0319 16.9254 49.4967 14.7585 49.4967 11.9936H48.4967C48.4967 14.116 46.5744 15.9254 44.107 15.9254V16.9254ZM41.3397 16.9254H44.107V15.9254H41.3397V16.9254ZM44.107 9.98862C45.4023 9.98862 46.3708 10.9336 46.3708 11.9936H47.3708C47.3708 10.2911 45.8598 8.98862 44.107 8.98862V9.98862ZM18.0639 9.98862H44.107V8.98862H18.0639V9.98862ZM15.8002 11.9936C15.8002 10.9336 16.7687 9.98862 18.0639 9.98862V8.98862C16.3112 8.98862 14.8002 10.2911 14.8002 11.9936H15.8002ZM18.0639 13.9985C16.7687 13.9985 15.8002 13.0535 15.8002 11.9936H14.8002C14.8002 13.696 16.3112 14.9985 18.0639 14.9985V13.9985ZM37.3039 13.9985H18.0639V14.9985H37.3039V13.9985ZM44.107 13.9985H37.3039V14.9985H44.107V13.9985ZM46.3708 11.9936C46.3708 13.0535 45.4023 13.9985 44.107 13.9985V14.9985C45.8598 14.9985 47.3708 13.696 47.3708 11.9936H46.3708ZM5.52073 7.06175C4.2255 7.06175 3.25698 6.11674 3.25698 5.05681H2.25698C2.25698 6.75925 3.76797 8.06175 5.52073 8.06175V7.06175ZM31.5638 7.06175H5.52073V8.06175H31.5638V7.06175ZM33.8276 5.05681C33.8276 6.11674 32.8591 7.06175 31.5638 7.06175V8.06175C33.3166 8.06175 34.8276 6.75925 34.8276 5.05681H33.8276ZM31.5638 3.05187C32.8591 3.05187 33.8276 3.99688 33.8276 5.05681H34.8276C34.8276 3.35437 33.3166 2.05187 31.5638 2.05187V3.05187ZM5.52073 3.05187H31.5638V2.05187H5.52073V3.05187ZM3.25698 5.05681C3.25698 3.99688 4.2255 3.05187 5.52073 3.05187V2.05187C3.76797 2.05187 2.25698 3.35437 2.25698 5.05681H3.25698ZM11.2608 16.9254H37.3039V15.9254H11.2608V16.9254ZM8.99709 18.9303C8.99709 17.8704 9.9657 16.9254 11.2608 16.9254V15.9254C9.5082 15.9254 7.99709 17.2278 7.99709 18.9303H8.99709ZM11.2608 20.9352C9.9657 20.9352 8.99709 19.9902 8.99709 18.9303H7.99709C7.99709 20.6327 9.5082 21.9352 11.2608 21.9352V20.9352ZM24.1976 20.9352H11.2608V21.9352H24.1976V20.9352ZM36.9851 16.1181C31.8717 16.1181 27.2275 18.0067 23.8613 21.0652L24.5338 21.8053C27.7143 18.9155 32.1182 17.1181 36.9851 17.1181V16.1181ZM38.5478 16.1785C38.0332 16.1393 37.5122 16.1181 36.9851 16.1181V17.1181C37.4854 17.1181 37.981 17.1382 38.472 17.1756L38.5478 16.1785ZM37.3039 16.9254C37.6618 16.9254 38.0034 17.0007 38.3089 17.1348L38.7109 16.2192C38.2807 16.0303 37.8024 15.9254 37.3039 15.9254V16.9254ZM11.2608 23.8621H22.3812V22.8621H11.2608V23.8621ZM8.99709 25.867C8.99709 24.8071 9.96561 23.8621 11.2608 23.8621V22.8621C9.50808 22.8621 7.99709 24.1646 7.99709 25.867H8.99709ZM11.2608 27.872C9.96559 27.872 8.99709 26.9271 8.99709 25.867H7.99709C7.99709 27.5696 9.5081 28.872 11.2608 28.872V27.872ZM19.6491 27.872H11.2608V28.872H19.6491V27.872ZM21.9918 23.0485C20.7489 24.5919 19.7858 26.3354 19.1736 28.2173L20.1245 28.5267C20.6973 26.7658 21.6002 25.1292 22.7707 23.6757L21.9918 23.0485ZM11.2608 30.7989H19.1609V29.7989H11.2608V30.7989ZM8.99709 32.8038C8.99709 31.7438 9.96559 30.7989 11.2608 30.7989V29.7989C9.5081 29.7989 7.99709 31.1012 7.99709 32.8038H8.99709ZM11.2608 34.8087C9.96559 34.8087 8.99709 33.8638 8.99709 32.8038H7.99709C7.99709 34.5063 9.5081 35.8087 11.2608 35.8087V34.8087ZM19.0954 34.8087H11.2608V35.8087H19.0954V34.8087ZM18.4144 32.9966C18.4144 33.8081 18.4792 34.6056 18.6014 35.3861L19.5893 35.2314C19.4749 34.5006 19.4144 33.7547 19.4144 32.9966H18.4144ZM18.6692 30.2085C18.5026 31.1156 18.4144 32.0467 18.4144 32.9966H19.4144C19.4144 32.1088 19.4968 31.2381 19.6527 30.3892L18.6692 30.2085ZM11.2608 41.7455C9.96559 41.7455 8.99709 40.8005 8.99709 39.7405H7.99709C7.99709 41.4431 9.5081 42.7455 11.2608 42.7455V41.7455ZM22.0798 41.7455H11.2608V42.7455H22.0798V41.7455ZM19.0499 37.3775C19.6042 39.2505 20.5039 40.9935 21.6813 42.5474L22.4783 41.9435C21.3703 40.4811 20.5273 38.8457 20.0088 37.0937L19.0499 37.3775ZM11.2608 37.7356H19.5294V36.7356H11.2608V37.7356ZM8.99709 39.7405C8.99709 38.6805 9.96559 37.7356 11.2608 37.7356V36.7356C9.5081 36.7356 7.99709 38.038 7.99709 39.7405H8.99709ZM36.9851 46.9481C28.422 46.9481 21.5404 40.6439 21.5404 32.9966H20.5404C20.5404 41.2864 27.9645 47.9481 36.9851 47.9481V46.9481ZM52.4299 32.9966C52.4299 40.6439 45.5483 46.9481 36.9851 46.9481V47.9481C46.0058 47.9481 53.4299 41.2864 53.4299 32.9966H52.4299ZM36.9851 19.045C45.5483 19.045 52.4299 25.3493 52.4299 32.9966H53.4299C53.4299 24.7067 46.0058 18.045 36.9851 18.045V19.045ZM21.5404 32.9966C21.5404 25.3493 28.422 19.045 36.9851 19.045V18.045C27.9645 18.045 20.5404 24.7067 20.5404 32.9966H21.5404ZM36.98 31.3265C35.644 31.3265 34.7737 30.4917 34.7737 29.7035H33.7737C33.7737 31.2565 35.3315 32.3265 36.98 32.3265V31.3265ZM42.6468 36.1795C42.6468 33.4262 40.0214 31.3265 36.98 31.3265V32.3265C39.6366 32.3265 41.6468 34.1323 41.6468 36.1795H42.6468ZM38.3114 40.8966C40.736 40.3957 42.6468 38.5201 42.6468 36.1795H41.6468C41.6468 37.9254 40.1982 39.4856 38.1091 39.9173L38.3114 40.8966ZM38.7102 40.8886V40.4069H37.7102V40.8886H38.7102ZM36.98 42.5036C37.8881 42.5036 38.7102 41.8256 38.7102 40.8886H37.7102C37.7102 41.183 37.4306 41.5036 36.98 41.5036V42.5036ZM35.2499 40.8886C35.2499 41.8256 36.072 42.5036 36.98 42.5036V41.5036C36.5295 41.5036 36.2499 41.183 36.2499 40.8886H35.2499ZM35.2499 40.4069V40.8886H36.2499V40.4069H35.2499ZM31.3133 36.1795C31.3133 38.5201 33.2241 40.3957 35.6487 40.8966L35.851 39.9173C33.7619 39.4856 32.3133 37.9254 32.3133 36.1795H31.3133ZM33.0435 34.5646C32.1355 34.5646 31.3133 35.2426 31.3133 36.1795H32.3133C32.3133 35.8851 32.593 35.5646 33.0435 35.5646V34.5646ZM34.7737 36.1795C34.7737 35.2426 33.9516 34.5646 33.0435 34.5646V35.5646C33.4941 35.5646 33.7737 35.8851 33.7737 36.1795H34.7737ZM36.98 37.8027C35.644 37.8027 34.7737 36.9679 34.7737 36.1795H33.7737C33.7737 37.7326 35.3314 38.8027 36.98 38.8027V37.8027ZM39.1864 36.1795C39.1864 36.9679 38.3161 37.8027 36.98 37.8027V38.8027C38.6287 38.8027 40.1864 37.7326 40.1864 36.1795H39.1864ZM36.98 34.5564C38.3161 34.5564 39.1864 35.3912 39.1864 36.1795H40.1864C40.1864 34.6264 38.6287 33.5564 36.98 33.5564V34.5564ZM31.3133 29.7035C31.3133 32.4567 33.9387 34.5564 36.98 34.5564V33.5564C34.3235 33.5564 32.3133 31.7507 32.3133 29.7035H31.3133ZM35.6487 24.9865C33.2241 25.4874 31.3133 27.363 31.3133 29.7035H32.3133C32.3133 27.9577 33.7619 26.3974 35.851 25.9658L35.6487 24.9865ZM35.2499 24.8962V25.4761H36.2499V24.8962H35.2499ZM36.98 23.2813C36.072 23.2813 35.2499 23.9593 35.2499 24.8962H36.2499C36.2499 24.6018 36.5295 24.2813 36.98 24.2813V23.2813ZM38.7102 24.8962C38.7102 23.9593 37.8881 23.2813 36.98 23.2813V24.2813C37.4306 24.2813 37.7102 24.6018 37.7102 24.8962H38.7102ZM38.7102 25.4761V24.8962H37.7102V25.4761H38.7102ZM42.6468 29.7035C42.6468 27.363 40.736 25.4874 38.3114 24.9865L38.1091 25.9658C40.1982 26.3974 41.6468 27.9577 41.6468 29.7035H42.6468ZM40.9166 31.3185C41.8246 31.3185 42.6468 30.6405 42.6468 29.7035H41.6468C41.6468 29.9979 41.3671 30.3185 40.9166 30.3185V31.3185ZM39.1864 29.7035C39.1864 30.6404 40.0085 31.3185 40.9166 31.3185V30.3185C40.466 30.3185 40.1864 29.9979 40.1864 29.7035H39.1864ZM36.98 28.0804C38.3161 28.0804 39.1864 28.9152 39.1864 29.7035H40.1864C40.1864 28.1504 38.6287 27.0804 36.98 27.0804V28.0804ZM34.7737 29.7035C34.7737 28.9152 35.644 28.0804 36.98 28.0804V27.0804C35.3314 27.0804 33.7737 28.1504 33.7737 29.7035H34.7737Z" fill="#9BABF7"/>
</svg>
