<svg width="56" height="51" viewBox="0 0 56 51" fill="none" xmlns="http://www.w3.org/2000/svg">
<path fill-rule="evenodd" clip-rule="evenodd" d="M41.7086 16.8004C41.8931 17.0446 42.0516 17.3079 42.1809 17.5873C49.8091 19.506 55.4248 25.8551 55.4248 33.3716C55.4248 42.4026 47.3183 49.75 37.3541 49.75C32.152 49.75 27.4572 47.7466 24.1571 44.5473H11.6298C8.93368 44.5473 6.74011 42.5592 6.74011 40.1155C6.74011 38.7121 7.46443 37.4597 8.59129 36.6472C7.46443 35.8346 6.74011 34.5822 6.74011 33.1788C6.74011 31.7754 7.46443 30.523 8.59129 29.7104C7.46443 28.8979 6.74011 27.6455 6.74011 26.242C6.74011 24.8386 7.46443 23.5862 8.59129 22.7737C7.46443 21.9611 6.74011 20.7087 6.74011 19.3053C6.74011 16.8616 8.93368 14.8735 11.6298 14.8735H14.4021C13.8608 14.1604 13.5432 13.2976 13.5432 12.3686C13.5432 11.4395 13.8609 10.5768 14.4021 9.86362H5.88972C3.19357 9.86362 1 7.87547 1 5.43181C1 2.98815 3.19357 1 5.88972 1H31.9328C34.629 1 36.8225 2.98815 36.8225 5.43181C36.8225 6.36085 36.5048 7.22361 35.9636 7.93675H44.476C47.1722 7.93675 49.3657 9.92489 49.3657 12.3686C49.3657 14.8122 47.1722 16.8004 44.476 16.8004H41.7086ZM47.2398 12.3686C47.2398 10.9874 46 9.86362 44.476 9.86362H18.4329C16.9089 9.86362 15.6692 10.9874 15.6692 12.3686C15.6692 13.7497 16.9089 14.8735 18.4329 14.8735H37.6729H44.476C46 14.8735 47.2398 13.7497 47.2398 12.3686ZM3.12597 5.43181C3.12597 6.81299 4.36572 7.93675 5.88972 7.93675H31.9328C33.4568 7.93675 34.6966 6.81299 34.6966 5.43181C34.6966 4.05063 33.4568 2.92687 31.9328 2.92687H5.88972C4.36572 2.92687 3.12597 4.05063 3.12597 5.43181ZM37.6729 16.8004H11.6298C10.1059 16.8004 8.86608 17.9241 8.86608 19.3053C8.86608 20.6865 10.1059 21.8102 11.6298 21.8102H24.5665C27.8399 18.8361 32.364 16.9931 37.3541 16.9931C37.8678 16.9931 38.3761 17.0138 38.8789 17.052C38.5111 16.8905 38.1011 16.8004 37.6729 16.8004ZM22.7502 23.7371H11.6298C10.1058 23.7371 8.86608 24.8609 8.86608 26.242C8.86608 27.6233 10.1058 28.747 11.6298 28.747H20.018C20.6106 26.9256 21.5435 25.2355 22.7502 23.7371ZM19.5299 30.6739H11.6298C10.1058 30.6739 8.86608 31.7975 8.86608 33.1788C8.86608 34.5601 10.1058 35.6837 11.6298 35.6837H19.4643C19.346 34.9281 19.2834 34.1564 19.2834 33.3716C19.2834 32.4527 19.3687 31.5518 19.5299 30.6739ZM8.86608 40.1155C8.86608 41.4968 10.1058 42.6205 11.6298 42.6205H22.4488C21.3061 41.1123 20.4347 39.4231 19.8984 37.6106H11.6298C10.1058 37.6106 8.86608 38.7343 8.86608 40.1155ZM21.4094 33.3716C21.4094 41.3402 28.5622 47.8231 37.3541 47.8231C46.1461 47.8231 53.2989 41.3402 53.2989 33.3716C53.2989 25.403 46.1461 18.92 37.3541 18.92C28.5622 18.92 21.4094 25.403 21.4094 33.3716ZM34.6427 30.0785C34.6427 31.2491 35.8567 32.2015 37.349 32.2015C40.198 32.2015 42.5157 34.1543 42.5157 36.5545C42.5157 38.5977 40.8361 40.3157 38.5792 40.7819V41.2636C38.5792 41.8793 38.0283 42.3786 37.349 42.3786C36.6697 42.3786 36.1189 41.8793 36.1189 41.2636V40.7819C33.862 40.3157 32.1823 38.5977 32.1823 36.5545C32.1823 35.9389 32.7332 35.4396 33.4125 35.4396C34.0918 35.4396 34.6427 35.9389 34.6427 36.5545C34.6427 37.7253 35.8567 38.6777 37.349 38.6777C38.8414 38.6777 40.0554 37.7253 40.0554 36.5545C40.0554 35.3838 38.8414 34.4314 37.349 34.4314C34.5001 34.4314 32.1823 32.4787 32.1823 30.0785C32.1823 28.0353 33.862 26.3174 36.1189 25.8511V25.2712C36.1189 24.6555 36.6697 24.1563 37.349 24.1563C38.0283 24.1563 38.5792 24.6555 38.5792 25.2712V25.8511C40.8361 26.3174 42.5157 28.0353 42.5157 30.0785C42.5157 30.6942 41.9649 31.1935 41.2856 31.1935C40.6063 31.1935 40.0554 30.6942 40.0554 30.0785C40.0554 28.9078 38.8414 27.9554 37.349 27.9554C35.8567 27.9554 34.6427 28.9078 34.6427 30.0785Z" fill="#4963F4"/>
<path d="M42.1809 17.5873L41.7272 17.7974L41.8275 18.014L42.059 18.0722L42.1809 17.5873ZM41.7086 16.8004V16.3004H40.7045L41.3096 17.1017L41.7086 16.8004ZM24.1571 44.5473L24.5051 44.1883L24.3597 44.0473H24.1571V44.5473ZM8.59129 36.6472L8.88374 37.0527L9.44617 36.6472L8.88374 36.2416L8.59129 36.6472ZM8.59129 29.7104L8.88374 30.116L9.44617 29.7104L8.88374 29.3049L8.59129 29.7104ZM8.59129 22.7737L8.88374 23.1792L9.44617 22.7737L8.88374 22.3681L8.59129 22.7737ZM14.4021 14.8735V15.3735H15.4093L14.8004 14.5712L14.4021 14.8735ZM14.4021 9.86362L14.8004 10.1659L15.4092 9.36362H14.4021V9.86362ZM35.9636 7.93675L35.5653 7.63449L34.9566 8.43675H35.9636V7.93675ZM24.5665 21.8102V22.3102H24.7598L24.9028 22.1803L24.5665 21.8102ZM38.8789 17.052L38.8409 17.5506L39.0799 16.5942L38.8789 17.052ZM22.7502 23.7371L23.1397 24.0507L23.7949 23.2371H22.7502V23.7371ZM20.018 28.747V29.247H20.3812L20.4935 28.9017L20.018 28.747ZM19.5299 30.6739L20.0217 30.7642L20.1301 30.1739H19.5299V30.6739ZM19.4643 35.6837V36.1837H20.0487L19.9583 35.6064L19.4643 35.6837ZM22.4488 42.6205V43.1205H23.4549L22.8473 42.3185L22.4488 42.6205ZM19.8984 37.6106L20.3778 37.4687L20.2718 37.1106H19.8984V37.6106ZM38.5792 40.7819L38.478 40.2923L38.0792 40.3747V40.7819H38.5792ZM36.1189 40.7819H36.6189V40.3747L36.22 40.2923L36.1189 40.7819ZM36.1189 25.8511L36.22 26.3408L36.6189 26.2584V25.8511H36.1189ZM38.5792 25.8511H38.0792V26.2584L38.478 26.3408L38.5792 25.8511ZM42.6347 17.3772C42.4902 17.0652 42.3132 16.7713 42.1077 16.4991L41.3096 17.1017C41.4729 17.3179 41.613 17.5507 41.7272 17.7974L42.6347 17.3772ZM55.9248 33.3716C55.9248 25.5902 50.1167 19.0678 42.3029 17.1024L42.059 18.0722C49.5016 19.9442 54.9248 26.12 54.9248 33.3716H55.9248ZM37.3541 50.25C47.5471 50.25 55.9248 42.7239 55.9248 33.3716H54.9248C54.9248 42.0814 47.0896 49.25 37.3541 49.25V50.25ZM23.8091 44.9063C27.2035 48.1971 32.0236 50.25 37.3541 50.25V49.25C32.2804 49.25 27.7109 47.2962 24.5051 44.1883L23.8091 44.9063ZM11.6298 45.0473H24.1571V44.0473H11.6298V45.0473ZM6.24011 40.1155C6.24011 42.8805 8.70493 45.0473 11.6298 45.0473V44.0473C9.16243 44.0473 7.24011 42.2379 7.24011 40.1155H6.24011ZM8.29885 36.2416C7.0581 37.1363 6.24011 38.5322 6.24011 40.1155H7.24011C7.24011 38.892 7.87075 37.7832 8.88374 37.0527L8.29885 36.2416ZM6.24011 33.1788C6.24011 34.7622 7.0581 36.158 8.29885 37.0527L8.88374 36.2416C7.87075 35.5112 7.24011 34.4023 7.24011 33.1788H6.24011ZM8.29885 29.3049C7.0581 30.1995 6.24011 31.5954 6.24011 33.1788H7.24011C7.24011 31.9553 7.87075 30.8464 8.88374 30.116L8.29885 29.3049ZM6.24011 26.242C6.24011 27.8254 7.0581 29.2213 8.29885 30.116L8.88374 29.3049C7.87075 28.5744 7.24011 27.4655 7.24011 26.242H6.24011ZM8.29885 22.3681C7.0581 23.2628 6.24011 24.6587 6.24011 26.242H7.24011C7.24011 25.0186 7.87075 23.9097 8.88374 23.1792L8.29885 22.3681ZM6.24011 19.3053C6.24011 20.8887 7.0581 22.2846 8.29885 23.1792L8.88374 22.3681C7.87075 21.6377 7.24011 20.5288 7.24011 19.3053H6.24011ZM11.6298 14.3735C8.70493 14.3735 6.24011 16.5404 6.24011 19.3053H7.24011C7.24011 17.1829 9.16243 15.3735 11.6298 15.3735V14.3735ZM14.4021 14.3735H11.6298V15.3735H14.4021V14.3735ZM13.0432 12.3686C13.0432 13.4147 13.4015 14.3822 14.0038 15.1758L14.8004 14.5712C14.3201 13.9385 14.0432 13.1805 14.0432 12.3686H13.0432ZM14.0038 9.56137C13.4016 10.3549 13.0432 11.3224 13.0432 12.3686H14.0432C14.0432 11.5567 14.3202 10.7986 14.8004 10.1659L14.0038 9.56137ZM5.88972 10.3636H14.4021V9.36362H5.88972V10.3636ZM0.5 5.43181C0.5 8.19674 2.96482 10.3636 5.88972 10.3636V9.36362C3.42232 9.36362 1.5 7.5542 1.5 5.43181H0.5ZM5.88972 0.5C2.96482 0.5 0.5 2.66688 0.5 5.43181H1.5C1.5 3.30941 3.42232 1.5 5.88972 1.5V0.5ZM31.9328 0.5H5.88972V1.5H31.9328V0.5ZM37.3225 5.43181C37.3225 2.66688 34.8577 0.5 31.9328 0.5V1.5C34.4002 1.5 36.3225 3.30941 36.3225 5.43181H37.3225ZM36.3619 8.239C36.9641 7.4455 37.3225 6.47799 37.3225 5.43181H36.3225C36.3225 6.24371 36.0455 7.00172 35.5653 7.63449L36.3619 8.239ZM44.476 7.43675H35.9636V8.43675H44.476V7.43675ZM49.8657 12.3686C49.8657 9.60363 47.4009 7.43675 44.476 7.43675V8.43675C46.9434 8.43675 48.8657 10.2462 48.8657 12.3686H49.8657ZM44.476 17.3004C47.4009 17.3004 49.8657 15.1335 49.8657 12.3686H48.8657C48.8657 14.491 46.9434 16.3004 44.476 16.3004V17.3004ZM41.7086 17.3004H44.476V16.3004H41.7086V17.3004ZM44.476 10.3636C45.7713 10.3636 46.7398 11.3086 46.7398 12.3686H47.7398C47.7398 10.6661 46.2288 9.36362 44.476 9.36362V10.3636ZM18.4329 10.3636H44.476V9.36362H18.4329V10.3636ZM16.1692 12.3686C16.1692 11.3086 17.1377 10.3636 18.4329 10.3636V9.36362C16.6802 9.36362 15.1692 10.6661 15.1692 12.3686H16.1692ZM18.4329 14.3735C17.1377 14.3735 16.1692 13.4285 16.1692 12.3686H15.1692C15.1692 14.071 16.6802 15.3735 18.4329 15.3735V14.3735ZM37.6729 14.3735H18.4329V15.3735H37.6729V14.3735ZM44.476 14.3735H37.6729V15.3735H44.476V14.3735ZM46.7398 12.3686C46.7398 13.4285 45.7713 14.3735 44.476 14.3735V15.3735C46.2288 15.3735 47.7398 14.071 47.7398 12.3686H46.7398ZM5.88972 7.43675C4.59448 7.43675 3.62597 6.49174 3.62597 5.43181H2.62597C2.62597 7.13425 4.13696 8.43675 5.88972 8.43675V7.43675ZM31.9328 7.43675H5.88972V8.43675H31.9328V7.43675ZM34.1966 5.43181C34.1966 6.49174 33.228 7.43675 31.9328 7.43675V8.43675C33.6856 8.43675 35.1966 7.13425 35.1966 5.43181H34.1966ZM31.9328 3.42687C33.228 3.42687 34.1966 4.37188 34.1966 5.43181H35.1966C35.1966 3.72937 33.6856 2.42687 31.9328 2.42687V3.42687ZM5.88972 3.42687H31.9328V2.42687H5.88972V3.42687ZM3.62597 5.43181C3.62597 4.37188 4.59448 3.42687 5.88972 3.42687V2.42687C4.13696 2.42687 2.62597 3.72937 2.62597 5.43181H3.62597ZM11.6298 17.3004H37.6729V16.3004H11.6298V17.3004ZM9.36608 19.3053C9.36608 18.2454 10.3347 17.3004 11.6298 17.3004V16.3004C9.87719 16.3004 8.36608 17.6029 8.36608 19.3053H9.36608ZM11.6298 21.3102C10.3347 21.3102 9.36608 20.3652 9.36608 19.3053H8.36608C8.36608 21.0077 9.87719 22.3102 11.6298 22.3102V21.3102ZM24.5665 21.3102H11.6298V22.3102H24.5665V21.3102ZM37.3541 16.4931C32.2407 16.4931 27.5965 18.3817 24.2303 21.4402L24.9028 22.1803C28.0833 19.2905 32.4872 17.4931 37.3541 17.4931V16.4931ZM38.9168 16.5535C38.4021 16.5143 37.8812 16.4931 37.3541 16.4931V17.4931C37.8544 17.4931 38.35 17.5132 38.8409 17.5506L38.9168 16.5535ZM37.6729 17.3004C38.0308 17.3004 38.3724 17.3757 38.6779 17.5098L39.0799 16.5942C38.6497 16.4053 38.1714 16.3004 37.6729 16.3004V17.3004ZM11.6298 24.2371H22.7502V23.2371H11.6298V24.2371ZM9.36608 26.242C9.36608 25.1821 10.3346 24.2371 11.6298 24.2371V23.2371C9.87707 23.2371 8.36608 24.5396 8.36608 26.242H9.36608ZM11.6298 28.247C10.3346 28.247 9.36608 27.3021 9.36608 26.242H8.36608C8.36608 27.9446 9.87709 29.247 11.6298 29.247V28.247ZM20.018 28.247H11.6298V29.247H20.018V28.247ZM22.3608 23.4235C21.1179 24.9669 20.1548 26.7104 19.5426 28.5923L20.4935 28.9017C21.0663 27.1408 21.9692 25.5042 23.1397 24.0507L22.3608 23.4235ZM11.6298 31.1739H19.5299V30.1739H11.6298V31.1739ZM9.36608 33.1788C9.36608 32.1188 10.3346 31.1739 11.6298 31.1739V30.1739C9.87708 30.1739 8.36608 31.4762 8.36608 33.1788H9.36608ZM11.6298 35.1837C10.3346 35.1837 9.36608 34.2388 9.36608 33.1788H8.36608C8.36608 34.8813 9.87709 36.1837 11.6298 36.1837V35.1837ZM19.4643 35.1837H11.6298V36.1837H19.4643V35.1837ZM18.7834 33.3716C18.7834 34.1831 18.8482 34.9806 18.9704 35.7611L19.9583 35.6064C19.8439 34.8756 19.7834 34.1297 19.7834 33.3716H18.7834ZM19.0382 30.5835C18.8716 31.4906 18.7834 32.4217 18.7834 33.3716H19.7834C19.7834 32.4838 19.8658 31.6131 20.0217 30.7642L19.0382 30.5835ZM11.6298 42.1205C10.3346 42.1205 9.36608 41.1755 9.36608 40.1155H8.36608C8.36608 41.8181 9.87709 43.1205 11.6298 43.1205V42.1205ZM22.4488 42.1205H11.6298V43.1205H22.4488V42.1205ZM19.4189 37.7525C19.9732 39.6255 20.8729 41.3685 22.0502 42.9224L22.8473 42.3185C21.7393 40.8561 20.8963 39.2207 20.3778 37.4687L19.4189 37.7525ZM11.6298 38.1106H19.8984V37.1106H11.6298V38.1106ZM9.36608 40.1155C9.36608 39.0555 10.3346 38.1106 11.6298 38.1106V37.1106C9.87709 37.1106 8.36608 38.413 8.36608 40.1155H9.36608ZM37.3541 47.3231C28.7909 47.3231 21.9094 41.0189 21.9094 33.3716H20.9094C20.9094 41.6614 28.3335 48.3231 37.3541 48.3231V47.3231ZM52.7989 33.3716C52.7989 41.0189 45.9173 47.3231 37.3541 47.3231V48.3231C46.3748 48.3231 53.7989 41.6614 53.7989 33.3716H52.7989ZM37.3541 19.42C45.9173 19.42 52.7989 25.7243 52.7989 33.3716H53.7989C53.7989 25.0817 46.3748 18.42 37.3541 18.42V19.42ZM21.9094 33.3716C21.9094 25.7243 28.7909 19.42 37.3541 19.42V18.42C28.3335 18.42 20.9094 25.0817 20.9094 33.3716H21.9094ZM37.349 31.7015C36.013 31.7015 35.1427 30.8667 35.1427 30.0785H34.1427C34.1427 31.6315 35.7004 32.7015 37.349 32.7015V31.7015ZM43.0157 36.5545C43.0157 33.8012 40.3904 31.7015 37.349 31.7015V32.7015C40.0056 32.7015 42.0157 34.5073 42.0157 36.5545H43.0157ZM38.6804 41.2716C41.1049 40.7707 43.0157 38.8951 43.0157 36.5545H42.0157C42.0157 38.3004 40.5672 39.8606 38.478 40.2923L38.6804 41.2716ZM39.0792 41.2636V40.7819H38.0792V41.2636H39.0792ZM37.349 42.8786C38.2571 42.8786 39.0792 42.2005 39.0792 41.2636H38.0792C38.0792 41.558 37.7996 41.8786 37.349 41.8786V42.8786ZM35.6189 41.2636C35.6189 42.2005 36.441 42.8786 37.349 42.8786V41.8786C36.8985 41.8786 36.6189 41.558 36.6189 41.2636H35.6189ZM35.6189 40.7819V41.2636H36.6189V40.7819H35.6189ZM31.6823 36.5545C31.6823 38.8951 33.5931 40.7707 36.0177 41.2716L36.22 40.2923C34.1309 39.8606 32.6823 38.3004 32.6823 36.5545H31.6823ZM33.4125 34.9396C32.5045 34.9396 31.6823 35.6176 31.6823 36.5545H32.6823C32.6823 36.2601 32.9619 35.9396 33.4125 35.9396V34.9396ZM35.1427 36.5545C35.1427 35.6176 34.3205 34.9396 33.4125 34.9396V35.9396C33.8631 35.9396 34.1427 36.2601 34.1427 36.5545H35.1427ZM37.349 38.1777C36.013 38.1777 35.1427 37.3429 35.1427 36.5545H34.1427C34.1427 38.1076 35.7004 39.1777 37.349 39.1777V38.1777ZM39.5554 36.5545C39.5554 37.3429 38.6851 38.1777 37.349 38.1777V39.1777C38.9977 39.1777 40.5554 38.1076 40.5554 36.5545H39.5554ZM37.349 34.9314C38.6851 34.9314 39.5554 35.7662 39.5554 36.5545H40.5554C40.5554 35.0015 38.9977 33.9314 37.349 33.9314V34.9314ZM31.6823 30.0785C31.6823 32.8317 34.3077 34.9314 37.349 34.9314V33.9314C34.6925 33.9314 32.6823 32.1257 32.6823 30.0785H31.6823ZM36.0177 25.3615C33.5931 25.8624 31.6823 27.738 31.6823 30.0785H32.6823C32.6823 28.3327 34.1309 26.7724 36.22 26.3408L36.0177 25.3615ZM35.6189 25.2712V25.8511H36.6189V25.2712H35.6189ZM37.349 23.6563C36.441 23.6563 35.6189 24.3343 35.6189 25.2712H36.6189C36.6189 24.9768 36.8985 24.6563 37.349 24.6563V23.6563ZM39.0792 25.2712C39.0792 24.3343 38.2571 23.6563 37.349 23.6563V24.6563C37.7996 24.6563 38.0792 24.9768 38.0792 25.2712H39.0792ZM39.0792 25.8511V25.2712H38.0792V25.8511H39.0792ZM43.0157 30.0785C43.0157 27.738 41.1049 25.8624 38.6804 25.3615L38.478 26.3408C40.5672 26.7724 42.0157 28.3327 42.0157 30.0785H43.0157ZM41.2856 31.6935C42.1936 31.6935 43.0157 31.0155 43.0157 30.0785H42.0157C42.0157 30.3729 41.7361 30.6935 41.2856 30.6935V31.6935ZM39.5554 30.0785C39.5554 31.0154 40.3775 31.6935 41.2856 31.6935V30.6935C40.835 30.6935 40.5554 30.3729 40.5554 30.0785H39.5554ZM37.349 28.4554C38.6851 28.4554 39.5554 29.2902 39.5554 30.0785H40.5554C40.5554 28.5254 38.9977 27.4554 37.349 27.4554V28.4554ZM35.1427 30.0785C35.1427 29.2902 36.013 28.4554 37.349 28.4554V27.4554C35.7004 27.4554 34.1427 28.5254 34.1427 30.0785H35.1427Z" fill="#4963F4"/>
</svg>
