<svg width="305" height="59" viewBox="0 0 305 59" fill="none" xmlns="http://www.w3.org/2000/svg">
<path fill-rule="evenodd" clip-rule="evenodd" d="M42.3397 21.4254C42.5241 21.6696 42.6826 21.9329 42.8119 22.2123C50.4401 24.131 56.0559 30.4801 56.0559 37.9966C56.0559 47.0276 47.9493 54.375 37.9851 54.375C32.783 54.375 28.0882 52.3716 24.7881 49.1723H12.2608C9.56469 49.1723 7.37112 47.1842 7.37112 44.7405C7.37112 43.3371 8.09544 42.0847 9.22231 41.2722C8.09544 40.4596 7.37112 39.2072 7.37112 37.8038C7.37112 36.4004 8.09544 35.148 9.22231 34.3354C8.09544 33.5229 7.37112 32.2705 7.37112 30.867C7.37112 29.4636 8.09544 28.2112 9.22231 27.3987C8.09544 26.5861 7.37112 25.3337 7.37112 23.9303C7.37112 21.4866 9.56469 19.4985 12.2608 19.4985H15.0331C14.4918 18.7854 14.1742 17.9226 14.1742 16.9936C14.1742 16.0645 14.4919 15.2018 15.0331 14.4886H6.52073C3.82458 14.4886 1.63101 12.5005 1.63101 10.0568C1.63101 7.61315 3.82458 5.625 6.52073 5.625H32.5638C35.26 5.625 37.4535 7.61315 37.4535 10.0568C37.4535 10.9859 37.1358 11.8486 36.5947 12.5617H45.107C47.8032 12.5617 49.9967 14.5499 49.9967 16.9936C49.9967 19.4372 47.8032 21.4254 45.107 21.4254H42.3397ZM47.8708 16.9936C47.8708 15.6124 46.631 14.4886 45.107 14.4886H19.0639C17.5399 14.4886 16.3002 15.6124 16.3002 16.9936C16.3002 18.3747 17.5399 19.4985 19.0639 19.4985H38.3039H45.107C46.631 19.4985 47.8708 18.3747 47.8708 16.9936ZM3.75698 10.0568C3.75698 11.438 4.99674 12.5617 6.52073 12.5617H32.5638C34.0878 12.5617 35.3276 11.438 35.3276 10.0568C35.3276 8.67563 34.0878 7.55187 32.5638 7.55187H6.52073C4.99674 7.55187 3.75698 8.67563 3.75698 10.0568ZM38.3039 21.4254H12.2608C10.737 21.4254 9.49709 22.5491 9.49709 23.9303C9.49709 25.3115 10.737 26.4352 12.2608 26.4352H25.1976C28.4709 23.4611 32.995 21.6181 37.9851 21.6181C38.4988 21.6181 39.0071 21.6388 39.5099 21.677C39.1421 21.5155 38.7321 21.4254 38.3039 21.4254ZM23.3812 28.3621H12.2608C10.7368 28.3621 9.49709 29.4859 9.49709 30.867C9.49709 32.2483 10.7368 33.372 12.2608 33.372H20.6491C21.2416 31.5506 22.1745 29.8605 23.3812 28.3621ZM20.1609 35.2989H12.2608C10.7368 35.2989 9.49709 36.4225 9.49709 37.8038C9.49709 39.1851 10.7368 40.3087 12.2608 40.3087H20.0954C19.977 39.5531 19.9144 38.7814 19.9144 37.9966C19.9144 37.0777 19.9997 36.1768 20.1609 35.2989ZM9.49709 44.7405C9.49709 46.1218 10.7368 47.2455 12.2608 47.2455H23.0798C21.9371 45.7373 21.0657 44.0481 20.5294 42.2356H12.2608C10.7368 42.2356 9.49709 43.3593 9.49709 44.7405ZM22.0404 37.9966C22.0404 45.9652 29.1932 52.4481 37.9851 52.4481C46.7771 52.4481 53.9299 45.9652 53.9299 37.9966C53.9299 30.028 46.7771 23.545 37.9851 23.545C29.1932 23.545 22.0404 30.028 22.0404 37.9966ZM35.2737 34.7035C35.2737 35.8741 36.4877 36.8265 37.98 36.8265C40.829 36.8265 43.1468 38.7793 43.1468 41.1795C43.1468 43.2227 41.4671 44.9407 39.2102 45.4069V45.8886C39.2102 46.5043 38.6593 47.0036 37.98 47.0036C37.3008 47.0036 36.7499 46.5043 36.7499 45.8886V45.4069C34.493 44.9407 32.8133 43.2227 32.8133 41.1795C32.8133 40.5639 33.3642 40.0646 34.0435 40.0646C34.7228 40.0646 35.2737 40.5639 35.2737 41.1795C35.2737 42.3503 36.4877 43.3027 37.98 43.3027C39.4724 43.3027 40.6864 42.3503 40.6864 41.1795C40.6864 40.0088 39.4724 39.0564 37.98 39.0564C35.1311 39.0564 32.8133 37.1037 32.8133 34.7035C32.8133 32.6603 34.493 30.9424 36.7499 30.4761V29.8962C36.7499 29.2805 37.3008 28.7813 37.98 28.7813C38.6593 28.7813 39.2102 29.2805 39.2102 29.8962V30.4761C41.4671 30.9424 43.1468 32.6603 43.1468 34.7035C43.1468 35.3192 42.5959 35.8185 41.9166 35.8185C41.2373 35.8185 40.6864 35.3192 40.6864 34.7035C40.6864 33.5328 39.4724 32.5804 37.98 32.5804C36.4877 32.5804 35.2737 33.5328 35.2737 34.7035Z" fill="#9BABF7"/>
<path d="M42.8119 22.2123L42.3582 22.4224L42.4585 22.639L42.69 22.6972L42.8119 22.2123ZM42.3397 21.4254V20.9254H41.3355L41.9406 21.7267L42.3397 21.4254ZM24.7881 49.1723L25.1361 48.8133L24.9907 48.6723H24.7881V49.1723ZM9.22231 41.2722L9.51475 41.6777L10.0772 41.2722L9.51475 40.8666L9.22231 41.2722ZM9.22231 34.3354L9.51475 34.741L10.0772 34.3354L9.51475 33.9299L9.22231 34.3354ZM9.22231 27.3987L9.51475 27.8042L10.0772 27.3987L9.51475 26.9931L9.22231 27.3987ZM15.0331 19.4985V19.9985H16.0403L15.4314 19.1962L15.0331 19.4985ZM15.0331 14.4886L15.4314 14.7909L16.0402 13.9886H15.0331V14.4886ZM36.5947 12.5617L36.1964 12.2595L35.5876 13.0617H36.5947V12.5617ZM25.1976 26.4352V26.9352H25.3908L25.5338 26.8053L25.1976 26.4352ZM39.5099 21.677L39.472 22.1756L39.7109 21.2192L39.5099 21.677ZM23.3812 28.3621L23.7707 28.6757L24.4259 27.8621H23.3812V28.3621ZM20.6491 33.372V33.872H21.0122L21.1245 33.5267L20.6491 33.372ZM20.1609 35.2989L20.6527 35.3892L20.7611 34.7989H20.1609V35.2989ZM20.0954 40.3087V40.8087H20.6797L20.5893 40.2314L20.0954 40.3087ZM23.0798 47.2455V47.7455H24.0859L23.4783 46.9435L23.0798 47.2455ZM20.5294 42.2356L21.0088 42.0937L20.9028 41.7356H20.5294V42.2356ZM39.2102 45.4069L39.1091 44.9173L38.7102 44.9997V45.4069H39.2102ZM36.7499 45.4069H37.2499V44.9997L36.851 44.9173L36.7499 45.4069ZM36.7499 30.4761L36.851 30.9658L37.2499 30.8834V30.4761H36.7499ZM39.2102 30.4761H38.7102V30.8834L39.1091 30.9658L39.2102 30.4761ZM43.2657 22.0022C43.1212 21.6902 42.9443 21.3963 42.7387 21.1241L41.9406 21.7267C42.1039 21.9429 42.244 22.1756 42.3582 22.4224L43.2657 22.0022ZM56.5559 37.9966C56.5559 30.2152 50.7477 23.6928 42.9339 21.7274L42.69 22.6972C50.1326 24.5692 55.5559 30.745 55.5559 37.9966H56.5559ZM37.9851 54.875C48.1781 54.875 56.5559 47.3489 56.5559 37.9966H55.5559C55.5559 46.7064 47.7206 53.875 37.9851 53.875V54.875ZM24.4401 49.5313C27.8346 52.8221 32.6546 54.875 37.9851 54.875V53.875C32.9114 53.875 28.3419 51.9212 25.1361 48.8133L24.4401 49.5313ZM12.2608 49.6723H24.7881V48.6723H12.2608V49.6723ZM6.87112 44.7405C6.87112 47.5055 9.33595 49.6723 12.2608 49.6723V48.6723C9.79344 48.6723 7.87112 46.8629 7.87112 44.7405H6.87112ZM8.92987 40.8666C7.68911 41.7613 6.87112 43.1572 6.87112 44.7405H7.87112C7.87112 43.517 8.50176 42.4082 9.51475 41.6777L8.92987 40.8666ZM6.87112 37.8038C6.87112 39.3872 7.68912 40.783 8.92987 41.6777L9.51475 40.8666C8.50176 40.1362 7.87112 39.0273 7.87112 37.8038H6.87112ZM8.92987 33.9299C7.68912 34.8245 6.87112 36.2204 6.87112 37.8038H7.87112C7.87112 36.5803 8.50176 35.4714 9.51475 34.741L8.92987 33.9299ZM6.87112 30.867C6.87112 32.4504 7.68912 33.8463 8.92987 34.741L9.51475 33.9299C8.50176 33.1994 7.87112 32.0905 7.87112 30.867H6.87112ZM8.92987 26.9931C7.68912 27.8878 6.87112 29.2837 6.87112 30.867H7.87112C7.87112 29.6436 8.50176 28.5347 9.51475 27.8042L8.92987 26.9931ZM6.87112 23.9303C6.87112 25.5137 7.68912 26.9095 8.92987 27.8042L9.51475 26.9931C8.50176 26.2627 7.87112 25.1538 7.87112 23.9303H6.87112ZM12.2608 18.9985C9.33595 18.9985 6.87112 21.1654 6.87112 23.9303H7.87112C7.87112 21.8079 9.79344 19.9985 12.2608 19.9985V18.9985ZM15.0331 18.9985H12.2608V19.9985H15.0331V18.9985ZM13.6742 16.9936C13.6742 18.0397 14.0325 19.0072 14.6348 19.8008L15.4314 19.1962C14.9511 18.5635 14.6742 17.8055 14.6742 16.9936H13.6742ZM14.6348 14.1864C14.0327 14.9799 13.6742 15.9474 13.6742 16.9936H14.6742C14.6742 16.1817 14.9512 15.4236 15.4314 14.7909L14.6348 14.1864ZM6.52073 14.9886H15.0331V13.9886H6.52073V14.9886ZM1.13101 10.0568C1.13101 12.8217 3.59584 14.9886 6.52073 14.9886V13.9886C4.05333 13.9886 2.13101 12.1792 2.13101 10.0568H1.13101ZM6.52073 5.125C3.59584 5.125 1.13101 7.29188 1.13101 10.0568H2.13101C2.13101 7.93441 4.05333 6.125 6.52073 6.125V5.125ZM32.5638 5.125H6.52073V6.125H32.5638V5.125ZM37.9535 10.0568C37.9535 7.29188 35.4887 5.125 32.5638 5.125V6.125C35.0312 6.125 36.9535 7.93441 36.9535 10.0568H37.9535ZM36.993 12.864C37.5951 12.0705 37.9535 11.103 37.9535 10.0568H36.9535C36.9535 10.8687 36.6765 11.6267 36.1964 12.2595L36.993 12.864ZM45.107 12.0617H36.5947V13.0617H45.107V12.0617ZM50.4967 16.9936C50.4967 14.2286 48.0319 12.0617 45.107 12.0617V13.0617C47.5744 13.0617 49.4967 14.8712 49.4967 16.9936H50.4967ZM45.107 21.9254C48.0319 21.9254 50.4967 19.7585 50.4967 16.9936H49.4967C49.4967 19.116 47.5744 20.9254 45.107 20.9254V21.9254ZM42.3397 21.9254H45.107V20.9254H42.3397V21.9254ZM45.107 14.9886C46.4023 14.9886 47.3708 15.9336 47.3708 16.9936H48.3708C48.3708 15.2911 46.8598 13.9886 45.107 13.9886V14.9886ZM19.0639 14.9886H45.107V13.9886H19.0639V14.9886ZM16.8002 16.9936C16.8002 15.9336 17.7687 14.9886 19.0639 14.9886V13.9886C17.3112 13.9886 15.8002 15.2911 15.8002 16.9936H16.8002ZM19.0639 18.9985C17.7687 18.9985 16.8002 18.0535 16.8002 16.9936H15.8002C15.8002 18.696 17.3112 19.9985 19.0639 19.9985V18.9985ZM38.3039 18.9985H19.0639V19.9985H38.3039V18.9985ZM45.107 18.9985H38.3039V19.9985H45.107V18.9985ZM47.3708 16.9936C47.3708 18.0535 46.4023 18.9985 45.107 18.9985V19.9985C46.8598 19.9985 48.3708 18.696 48.3708 16.9936H47.3708ZM6.52073 12.0617C5.2255 12.0617 4.25698 11.1167 4.25698 10.0568H3.25698C3.25698 11.7592 4.76797 13.0617 6.52073 13.0617V12.0617ZM32.5638 12.0617H6.52073V13.0617H32.5638V12.0617ZM34.8276 10.0568C34.8276 11.1167 33.8591 12.0617 32.5638 12.0617V13.0617C34.3166 13.0617 35.8276 11.7592 35.8276 10.0568H34.8276ZM32.5638 8.05187C33.8591 8.05187 34.8276 8.99688 34.8276 10.0568H35.8276C35.8276 8.35437 34.3166 7.05187 32.5638 7.05187V8.05187ZM6.52073 8.05187H32.5638V7.05187H6.52073V8.05187ZM4.25698 10.0568C4.25698 8.99688 5.2255 8.05187 6.52073 8.05187V7.05187C4.76797 7.05187 3.25698 8.35437 3.25698 10.0568H4.25698ZM12.2608 21.9254H38.3039V20.9254H12.2608V21.9254ZM9.99709 23.9303C9.99709 22.8704 10.9657 21.9254 12.2608 21.9254V20.9254C10.5082 20.9254 8.99709 22.2278 8.99709 23.9303H9.99709ZM12.2608 25.9352C10.9657 25.9352 9.99709 24.9902 9.99709 23.9303H8.99709C8.99709 25.6327 10.5082 26.9352 12.2608 26.9352V25.9352ZM25.1976 25.9352H12.2608V26.9352H25.1976V25.9352ZM37.9851 21.1181C32.8717 21.1181 28.2275 23.0067 24.8613 26.0652L25.5338 26.8053C28.7143 23.9155 33.1182 22.1181 37.9851 22.1181V21.1181ZM39.5478 21.1785C39.0332 21.1393 38.5122 21.1181 37.9851 21.1181V22.1181C38.4854 22.1181 38.981 22.1382 39.472 22.1756L39.5478 21.1785ZM38.3039 21.9254C38.6618 21.9254 39.0034 22.0007 39.3089 22.1348L39.7109 21.2192C39.2807 21.0303 38.8024 20.9254 38.3039 20.9254V21.9254ZM12.2608 28.8621H23.3812V27.8621H12.2608V28.8621ZM9.99709 30.867C9.99709 29.8071 10.9656 28.8621 12.2608 28.8621V27.8621C10.5081 27.8621 8.99709 29.1646 8.99709 30.867H9.99709ZM12.2608 32.872C10.9656 32.872 9.99709 31.9271 9.99709 30.867H8.99709C8.99709 32.5696 10.5081 33.872 12.2608 33.872V32.872ZM20.6491 32.872H12.2608V33.872H20.6491V32.872ZM22.9918 28.0485C21.7489 29.5919 20.7858 31.3354 20.1736 33.2173L21.1245 33.5267C21.6973 31.7658 22.6002 30.1292 23.7707 28.6757L22.9918 28.0485ZM12.2608 35.7989H20.1609V34.7989H12.2608V35.7989ZM9.99709 37.8038C9.99709 36.7438 10.9656 35.7989 12.2608 35.7989V34.7989C10.5081 34.7989 8.99709 36.1012 8.99709 37.8038H9.99709ZM12.2608 39.8087C10.9656 39.8087 9.99709 38.8638 9.99709 37.8038H8.99709C8.99709 39.5063 10.5081 40.8087 12.2608 40.8087V39.8087ZM20.0954 39.8087H12.2608V40.8087H20.0954V39.8087ZM19.4144 37.9966C19.4144 38.8081 19.4792 39.6056 19.6014 40.3861L20.5893 40.2314C20.4749 39.5006 20.4144 38.7547 20.4144 37.9966H19.4144ZM19.6692 35.2085C19.5026 36.1156 19.4144 37.0467 19.4144 37.9966H20.4144C20.4144 37.1088 20.4968 36.2381 20.6527 35.3892L19.6692 35.2085ZM12.2608 46.7455C10.9656 46.7455 9.99709 45.8005 9.99709 44.7405H8.99709C8.99709 46.4431 10.5081 47.7455 12.2608 47.7455V46.7455ZM23.0798 46.7455H12.2608V47.7455H23.0798V46.7455ZM20.0499 42.3775C20.6042 44.2505 21.5039 45.9935 22.6813 47.5474L23.4783 46.9435C22.3703 45.4811 21.5273 43.8457 21.0088 42.0937L20.0499 42.3775ZM12.2608 42.7356H20.5294V41.7356H12.2608V42.7356ZM9.99709 44.7405C9.99709 43.6805 10.9656 42.7356 12.2608 42.7356V41.7356C10.5081 41.7356 8.99709 43.038 8.99709 44.7405H9.99709ZM37.9851 51.9481C29.422 51.9481 22.5404 45.6439 22.5404 37.9966H21.5404C21.5404 46.2864 28.9645 52.9481 37.9851 52.9481V51.9481ZM53.4299 37.9966C53.4299 45.6439 46.5483 51.9481 37.9851 51.9481V52.9481C47.0058 52.9481 54.4299 46.2864 54.4299 37.9966H53.4299ZM37.9851 24.045C46.5483 24.045 53.4299 30.3493 53.4299 37.9966H54.4299C54.4299 29.7067 47.0058 23.045 37.9851 23.045V24.045ZM22.5404 37.9966C22.5404 30.3493 29.422 24.045 37.9851 24.045V23.045C28.9645 23.045 21.5404 29.7067 21.5404 37.9966H22.5404ZM37.98 36.3265C36.644 36.3265 35.7737 35.4917 35.7737 34.7035H34.7737C34.7737 36.2565 36.3315 37.3265 37.98 37.3265V36.3265ZM43.6468 41.1795C43.6468 38.4262 41.0214 36.3265 37.98 36.3265V37.3265C40.6366 37.3265 42.6468 39.1323 42.6468 41.1795H43.6468ZM39.3114 45.8966C41.736 45.3957 43.6468 43.5201 43.6468 41.1795H42.6468C42.6468 42.9254 41.1982 44.4856 39.1091 44.9173L39.3114 45.8966ZM39.7102 45.8886V45.4069H38.7102V45.8886H39.7102ZM37.98 47.5036C38.8881 47.5036 39.7102 46.8256 39.7102 45.8886H38.7102C38.7102 46.183 38.4306 46.5036 37.98 46.5036V47.5036ZM36.2499 45.8886C36.2499 46.8256 37.072 47.5036 37.98 47.5036V46.5036C37.5295 46.5036 37.2499 46.183 37.2499 45.8886H36.2499ZM36.2499 45.4069V45.8886H37.2499V45.4069H36.2499ZM32.3133 41.1795C32.3133 43.5201 34.2241 45.3957 36.6487 45.8966L36.851 44.9173C34.7619 44.4856 33.3133 42.9254 33.3133 41.1795H32.3133ZM34.0435 39.5646C33.1355 39.5646 32.3133 40.2426 32.3133 41.1795H33.3133C33.3133 40.8851 33.593 40.5646 34.0435 40.5646V39.5646ZM35.7737 41.1795C35.7737 40.2426 34.9516 39.5646 34.0435 39.5646V40.5646C34.4941 40.5646 34.7737 40.8851 34.7737 41.1795H35.7737ZM37.98 42.8027C36.644 42.8027 35.7737 41.9679 35.7737 41.1795H34.7737C34.7737 42.7326 36.3314 43.8027 37.98 43.8027V42.8027ZM40.1864 41.1795C40.1864 41.9679 39.3161 42.8027 37.98 42.8027V43.8027C39.6287 43.8027 41.1864 42.7326 41.1864 41.1795H40.1864ZM37.98 39.5564C39.3161 39.5564 40.1864 40.3912 40.1864 41.1795H41.1864C41.1864 39.6264 39.6287 38.5564 37.98 38.5564V39.5564ZM32.3133 34.7035C32.3133 37.4567 34.9387 39.5564 37.98 39.5564V38.5564C35.3235 38.5564 33.3133 36.7507 33.3133 34.7035H32.3133ZM36.6487 29.9865C34.2241 30.4874 32.3133 32.363 32.3133 34.7035H33.3133C33.3133 32.9577 34.7619 31.3974 36.851 30.9658L36.6487 29.9865ZM36.2499 29.8962V30.4761H37.2499V29.8962H36.2499ZM37.98 28.2813C37.072 28.2813 36.2499 28.9593 36.2499 29.8962H37.2499C37.2499 29.6018 37.5295 29.2813 37.98 29.2813V28.2813ZM39.7102 29.8962C39.7102 28.9593 38.8881 28.2813 37.98 28.2813V29.2813C38.4306 29.2813 38.7102 29.6018 38.7102 29.8962H39.7102ZM39.7102 30.4761V29.8962H38.7102V30.4761H39.7102ZM43.6468 34.7035C43.6468 32.363 41.736 30.4874 39.3114 29.9865L39.1091 30.9658C41.1982 31.3974 42.6468 32.9577 42.6468 34.7035H43.6468ZM41.9166 36.3185C42.8246 36.3185 43.6468 35.6405 43.6468 34.7035H42.6468C42.6468 34.9979 42.3671 35.3185 41.9166 35.3185V36.3185ZM40.1864 34.7035C40.1864 35.6404 41.0085 36.3185 41.9166 36.3185V35.3185C41.466 35.3185 41.1864 34.9979 41.1864 34.7035H40.1864ZM37.98 33.0804C39.3161 33.0804 40.1864 33.9152 40.1864 34.7035H41.1864C41.1864 33.1504 39.6287 32.0804 37.98 32.0804V33.0804ZM35.7737 34.7035C35.7737 33.9152 36.644 33.0804 37.98 33.0804V32.0804C36.3314 32.0804 34.7737 33.1504 34.7737 34.7035H35.7737Z" fill="#9BABF7"/>
<path d="M100.598 44.344C97.7313 44.344 95.2517 43.7277 93.159 42.495C91.0663 41.2337 89.4467 39.442 88.3 37.12C87.182 34.7693 86.623 32.003 86.623 28.821C86.623 25.6677 87.182 22.93 88.3 20.608C89.4467 18.2573 91.0663 16.4657 93.159 15.233C95.2517 13.9717 97.7313 13.341 100.598 13.341C102.519 13.341 104.325 13.6563 106.016 14.287C107.736 14.889 109.227 15.7633 110.488 16.91C110.947 17.34 111.176 17.8417 111.176 18.415C111.176 18.8163 111.061 19.1747 110.832 19.49C110.603 19.7767 110.33 19.92 110.015 19.92C109.671 19.92 109.255 19.7623 108.768 19.447C107.306 18.3003 105.973 17.4977 104.769 17.039C103.594 16.5803 102.232 16.351 100.684 16.351C97.3587 16.351 94.793 17.4403 92.987 19.619C91.2097 21.769 90.321 24.8363 90.321 28.821C90.321 32.8343 91.2097 35.9303 92.987 38.109C94.793 40.259 97.3587 41.334 100.684 41.334C102.203 41.334 103.565 41.1047 104.769 40.646C105.973 40.1873 107.306 39.3847 108.768 38.238C109.255 37.9227 109.671 37.765 110.015 37.765C110.33 37.765 110.603 37.9083 110.832 38.195C111.061 38.4817 111.176 38.84 111.176 39.27C111.176 39.8433 110.947 40.345 110.488 40.775C109.227 41.9217 107.736 42.8103 106.016 43.441C104.325 44.043 102.519 44.344 100.598 44.344ZM124.463 22.543C129.709 22.543 132.332 25.295 132.332 30.799V42.495C132.332 43.011 132.174 43.4267 131.859 43.742C131.572 44.0573 131.171 44.215 130.655 44.215C130.139 44.215 129.723 44.0573 129.408 43.742C129.092 43.4267 128.935 43.011 128.935 42.495V40.431C128.39 41.6637 127.559 42.624 126.441 43.312C125.323 43.9713 124.033 44.301 122.571 44.301C121.223 44.301 119.976 44.0287 118.83 43.484C117.712 42.9393 116.823 42.1797 116.164 41.205C115.504 40.2303 115.175 39.1553 115.175 37.98C115.175 36.4033 115.576 35.185 116.379 34.325C117.181 33.4363 118.5 32.8057 120.335 32.433C122.169 32.0317 124.721 31.831 127.989 31.831H128.935V30.412C128.935 28.692 128.576 27.4307 127.86 26.628C127.172 25.8253 126.039 25.424 124.463 25.424C122.513 25.424 120.535 25.9543 118.529 27.015C117.755 27.5023 117.21 27.746 116.895 27.746C116.551 27.746 116.264 27.617 116.035 27.359C115.805 27.101 115.691 26.7713 115.691 26.37C115.691 25.9687 115.805 25.6247 116.035 25.338C116.293 25.0227 116.694 24.7073 117.239 24.392C118.242 23.8187 119.374 23.3743 120.636 23.059C121.926 22.715 123.201 22.543 124.463 22.543ZM123.044 41.549C124.764 41.549 126.168 40.9757 127.258 39.829C128.376 38.6537 128.935 37.1487 128.935 35.314V34.067H128.161C125.638 34.067 123.717 34.1817 122.399 34.411C121.08 34.6117 120.134 34.97 119.561 35.486C119.016 35.9733 118.744 36.7043 118.744 37.679C118.744 38.797 119.145 39.7287 119.948 40.474C120.779 41.1907 121.811 41.549 123.044 41.549ZM145.759 44.301C144.441 44.301 143.179 44.1433 141.975 43.828C140.8 43.5127 139.754 43.0683 138.836 42.495C138.32 42.151 137.948 41.8357 137.718 41.549C137.518 41.2337 137.417 40.861 137.417 40.431C137.417 40.0583 137.518 39.7573 137.718 39.528C137.948 39.27 138.234 39.141 138.578 39.141C138.922 39.141 139.424 39.356 140.083 39.786C140.943 40.302 141.789 40.7177 142.62 41.033C143.48 41.3197 144.541 41.463 145.802 41.463C147.35 41.463 148.554 41.1907 149.414 40.646C150.274 40.1013 150.704 39.313 150.704 38.281C150.704 37.6503 150.547 37.1487 150.231 36.776C149.916 36.3747 149.371 36.0307 148.597 35.744C147.823 35.4287 146.691 35.1133 145.2 34.798C142.678 34.2533 140.872 33.5223 139.782 32.605C138.693 31.6877 138.148 30.4407 138.148 28.864C138.148 27.6313 138.492 26.542 139.18 25.596C139.868 24.65 140.814 23.9047 142.018 23.36C143.251 22.8153 144.641 22.543 146.189 22.543C147.307 22.543 148.382 22.7007 149.414 23.016C150.475 23.3027 151.407 23.7183 152.209 24.263C153.184 24.951 153.671 25.6677 153.671 26.413C153.671 26.7857 153.557 27.101 153.327 27.359C153.098 27.617 152.826 27.746 152.51 27.746C152.166 27.746 151.65 27.5023 150.962 27.015C150.16 26.499 149.4 26.0977 148.683 25.811C147.967 25.5243 147.078 25.381 146.017 25.381C144.67 25.381 143.581 25.682 142.749 26.284C141.947 26.886 141.545 27.6887 141.545 28.692C141.545 29.3227 141.689 29.8387 141.975 30.24C142.291 30.6127 142.792 30.9567 143.48 31.272C144.197 31.5587 145.215 31.8453 146.533 32.132C148.483 32.562 149.988 33.035 151.048 33.551C152.138 34.067 152.912 34.6977 153.37 35.443C153.829 36.1883 154.058 37.1343 154.058 38.281C154.058 40.087 153.299 41.549 151.779 42.667C150.26 43.7563 148.253 44.301 145.759 44.301ZM169.946 22.543C172.411 22.543 174.274 23.2453 175.536 24.65C176.797 26.026 177.428 28.09 177.428 30.842V42.495C177.428 43.0397 177.27 43.4697 176.955 43.785C176.639 44.0717 176.224 44.215 175.708 44.215C175.163 44.215 174.733 44.0717 174.418 43.785C174.102 43.4697 173.945 43.0397 173.945 42.495V30.928C173.945 29.0647 173.558 27.6887 172.784 26.8C172.038 25.9113 170.834 25.467 169.172 25.467C167.251 25.467 165.717 26.0547 164.571 27.23C163.424 28.4053 162.851 29.9963 162.851 32.003V42.495C162.851 43.0397 162.693 43.4697 162.378 43.785C162.091 44.0717 161.675 44.215 161.131 44.215C160.586 44.215 160.156 44.0717 159.841 43.785C159.525 43.4697 159.368 43.0397 159.368 42.495V15.147C159.368 14.6597 159.525 14.2583 159.841 13.943C160.185 13.6277 160.615 13.47 161.131 13.47C161.675 13.47 162.091 13.6277 162.378 13.943C162.693 14.2297 162.851 14.631 162.851 15.147V26.413C163.539 25.1517 164.499 24.1913 165.732 23.532C166.964 22.8727 168.369 22.543 169.946 22.543ZM194.342 44.387C192.135 44.387 190.042 44.1003 188.064 43.527C186.115 42.925 184.524 42.1223 183.291 41.119C182.632 40.6317 182.302 39.9437 182.302 39.055C182.302 38.453 182.474 37.937 182.818 37.507C183.191 37.0483 183.621 36.819 184.108 36.819C184.624 36.819 185.212 37.0197 185.871 37.421C187.104 38.3097 188.394 38.9547 189.741 39.356C191.088 39.7573 192.579 39.958 194.213 39.958C196.306 39.958 197.911 39.5997 199.029 38.883C200.147 38.1377 200.706 37.0627 200.706 35.658C200.706 34.5687 200.176 33.7373 199.115 33.164C198.083 32.562 196.349 31.9887 193.912 31.444C191.389 30.8993 189.34 30.2687 187.763 29.552C186.186 28.8353 184.997 27.918 184.194 26.8C183.391 25.682 182.99 24.263 182.99 22.543C182.99 20.7657 183.492 19.1747 184.495 17.77C185.498 16.3653 186.889 15.276 188.666 14.502C190.472 13.6993 192.493 13.298 194.729 13.298C198.828 13.298 202.168 14.3873 204.748 16.566C205.121 16.8813 205.379 17.1967 205.522 17.512C205.694 17.7987 205.78 18.1713 205.78 18.63C205.78 19.232 205.594 19.7623 205.221 20.221C204.877 20.651 204.461 20.866 203.974 20.866C203.687 20.866 203.415 20.823 203.157 20.737C202.928 20.651 202.612 20.4933 202.211 20.264C201.036 19.404 199.889 18.7733 198.771 18.372C197.682 17.942 196.334 17.727 194.729 17.727C192.78 17.727 191.232 18.1283 190.085 18.931C188.967 19.705 188.408 20.7943 188.408 22.199C188.408 23.3743 188.91 24.2773 189.913 24.908C190.916 25.5387 192.622 26.1263 195.03 26.671C197.581 27.2443 199.645 27.8893 201.222 28.606C202.827 29.294 204.046 30.1827 204.877 31.272C205.737 32.3613 206.167 33.723 206.167 35.357C206.167 37.1343 205.665 38.711 204.662 40.087C203.687 41.4343 202.297 42.495 200.491 43.269C198.714 44.0143 196.664 44.387 194.342 44.387ZM221.426 40.259C222.859 40.345 223.576 40.99 223.576 42.194C223.576 42.882 223.289 43.4123 222.716 43.785C222.171 44.129 221.383 44.2723 220.351 44.215L219.19 44.129C214.374 43.785 211.966 41.205 211.966 36.389V27.015H209.816C209.042 27.015 208.44 26.843 208.01 26.499C207.609 26.155 207.408 25.6533 207.408 24.994C207.408 24.3347 207.609 23.833 208.01 23.489C208.44 23.145 209.042 22.973 209.816 22.973H211.966V19.017C211.966 18.243 212.21 17.6267 212.697 17.168C213.184 16.7093 213.844 16.48 214.675 16.48C215.478 16.48 216.123 16.7093 216.61 17.168C217.097 17.6267 217.341 18.243 217.341 19.017V22.973H220.996C221.77 22.973 222.358 23.145 222.759 23.489C223.189 23.833 223.404 24.3347 223.404 24.994C223.404 25.6533 223.189 26.155 222.759 26.499C222.358 26.843 221.77 27.015 220.996 27.015H217.341V36.776C217.341 38.8973 218.316 40.0297 220.265 40.173L221.426 40.259ZM235.493 22.457C238.417 22.457 240.581 23.188 241.986 24.65C243.419 26.0833 244.136 28.2763 244.136 31.229V41.721C244.136 42.495 243.907 43.1113 243.448 43.57C242.989 44 242.359 44.215 241.556 44.215C240.811 44.215 240.194 43.9857 239.707 43.527C239.248 43.0683 239.019 42.4663 239.019 41.721V40.775C238.532 41.893 237.758 42.7673 236.697 43.398C235.665 44.0287 234.461 44.344 233.085 44.344C231.68 44.344 230.405 44.0573 229.258 43.484C228.111 42.9107 227.208 42.1223 226.549 41.119C225.89 40.1157 225.56 38.9977 225.56 37.765C225.56 36.217 225.947 34.9987 226.721 34.11C227.524 33.2213 228.814 32.5763 230.591 32.175C232.368 31.7737 234.819 31.573 237.944 31.573H239.019V30.584C239.019 29.1793 238.718 28.1617 238.116 27.531C237.514 26.8717 236.539 26.542 235.192 26.542C234.361 26.542 233.515 26.671 232.655 26.929C231.795 27.1583 230.777 27.5023 229.602 27.961C228.857 28.3337 228.312 28.52 227.968 28.52C227.452 28.52 227.022 28.3337 226.678 27.961C226.363 27.5883 226.205 27.101 226.205 26.499C226.205 26.0117 226.32 25.596 226.549 25.252C226.807 24.8793 227.223 24.5353 227.796 24.22C228.799 23.6753 229.989 23.2453 231.365 22.93C232.77 22.6147 234.146 22.457 235.493 22.457ZM234.16 40.474C235.593 40.474 236.754 40.001 237.643 39.055C238.56 38.0803 239.019 36.8333 239.019 35.314V34.411H238.245C236.324 34.411 234.834 34.497 233.773 34.669C232.712 34.841 231.953 35.142 231.494 35.572C231.035 36.002 230.806 36.5897 230.806 37.335C230.806 38.2523 231.121 39.012 231.752 39.614C232.411 40.1873 233.214 40.474 234.16 40.474ZM258.93 44.344C256.837 44.344 254.988 43.8997 253.383 43.011C251.806 42.1223 250.588 40.861 249.728 39.227C248.868 37.593 248.438 35.6867 248.438 33.508C248.438 31.3293 248.882 29.4087 249.771 27.746C250.688 26.0547 251.964 24.7503 253.598 23.833C255.232 22.9157 257.109 22.457 259.231 22.457C260.349 22.457 261.467 22.6147 262.585 22.93C263.731 23.2453 264.735 23.6753 265.595 24.22C266.512 24.822 266.971 25.5817 266.971 26.499C266.971 27.1297 266.813 27.6457 266.498 28.047C266.211 28.4197 265.824 28.606 265.337 28.606C265.021 28.606 264.692 28.5343 264.348 28.391C264.004 28.2477 263.66 28.0757 263.316 27.875C262.685 27.5023 262.083 27.2157 261.51 27.015C260.936 26.7857 260.277 26.671 259.532 26.671C257.754 26.671 256.378 27.2587 255.404 28.434C254.458 29.5807 253.985 31.2433 253.985 33.422C253.985 35.572 254.458 37.2347 255.404 38.41C256.378 39.5567 257.754 40.13 259.532 40.13C260.248 40.13 260.879 40.0297 261.424 39.829C261.997 39.5997 262.628 39.2987 263.316 38.926C263.746 38.668 264.118 38.4817 264.434 38.367C264.749 38.2237 265.064 38.152 265.38 38.152C265.838 38.152 266.225 38.3527 266.541 38.754C266.856 39.1553 267.014 39.657 267.014 40.259C267.014 40.7463 266.899 41.1763 266.67 41.549C266.469 41.893 266.125 42.2083 265.638 42.495C264.749 43.0683 263.717 43.527 262.542 43.871C261.366 44.1863 260.162 44.344 258.93 44.344ZM289.3 39.829C289.873 40.3737 290.16 40.99 290.16 41.678C290.16 42.3373 289.916 42.925 289.429 43.441C288.97 43.957 288.425 44.215 287.795 44.215C287.164 44.215 286.576 43.957 286.032 43.441L275.97 34.325V41.678C275.97 42.5093 275.712 43.14 275.196 43.57C274.68 44 274.035 44.215 273.261 44.215C272.487 44.215 271.842 44 271.326 43.57C270.838 43.14 270.595 42.5093 270.595 41.678V16.007C270.595 15.1757 270.838 14.545 271.326 14.115C271.842 13.685 272.487 13.47 273.261 13.47C274.035 13.47 274.68 13.685 275.196 14.115C275.712 14.545 275.97 15.1757 275.97 16.007V32.175L285.172 23.36C285.688 22.844 286.275 22.586 286.935 22.586C287.594 22.586 288.167 22.8297 288.655 23.317C289.142 23.8043 289.386 24.3777 289.386 25.037C289.386 25.6963 289.113 26.2983 288.569 26.843L281.818 33.121L289.3 39.829Z" fill="white"/>
</svg>
